<?xml version="1.0" encoding="UTF-8"?><svg id="Layer_1" xmlns="http://www.w3.org/2000/svg" viewBox="0 0 500 500"><polygon points="288.05 110.09 273.51 110.16 273.49 65.03 288.04 64.07 288.05 110.09"/><path d="M272.2,57.67l-6.41-9.29,9.47-10.45c4.2,3.68,7.66,8.65,10.27,14.53l-13.34,5.22Z"/><path d="M259.41,44.18l-10.82-2.39-.24-14.41c6.61.45,12.1,1.67,17.32,3.94l-6.26,12.86Z"/><path d="M191.85,290.04l-.35,20.01,22.68.07.12,14.53h-22.66s-.02,14.7-.02,14.7l-14.59-.03-.03-49.29-50.53.02-.02-116.2,27.38-27.52,55.21-.14-26.73-26.9-.03-52.39C182.25,29.79,212.43-.03,248.89,0c36.99.03,66.71,30.41,66.64,67.88l-.09,51.41-26.68,26.9,54.98.08,27.55,27.51v116.26s-50.52,0-50.52,0l-.03,49.28-14.57.04-.05-49.32-47.72-.02-9.46-9.58-9.62,9.57-47.47.02ZM267.92,146.23l32.93-32.97.15-45.41c.09-28.97-22.58-52.68-51.18-53.24-28.1-.56-52.86,22.33-52.89,51.29l-.06,47.37,33.12,33.03,37.94-.07ZM306.09,224.98l.08-19.6,14.58.09v34.06s-64.6-.01-64.6-.01v27.82s8.67,8.18,8.67,8.18l91.92-.02v-95.84s-19.03-18.87-19.03-18.87l-178.01.05-18.72,18.9.02,95.78,92.39-.03,8.27-8.59-.09-27.38h-64.58s.03-34.12.03-34.12h14.56s.1,19.58.1,19.58h114.41Z"/><rect x="262.83" y="180.82" width="14.54" height="14.72"/><rect x="238.59" y="180.82" width="14.54" height="14.72"/><rect x="214.35" y="180.82" width="14.54" height="14.72"/><polygon points="221.86 496.49 207.14 496.48 207.54 481.94 222.1 481.94 221.86 496.49"/><polygon points="289.87 496.48 275.55 496.49 275.63 481.94 290.19 481.94 289.87 496.48"/><rect x="241.61" y="428.1" width="14.54" height="51.25"/><rect x="207.56" y="428.1" width="14.54" height="19.9"/><rect x="275.63" y="428.1" width="14.54" height="19.9"/><rect x="173.53" y="428.1" width="14.54" height="14.6"/><rect x="309.68" y="428.1" width="14.54" height="14.6"/><rect x="173.53" y="452.34" width="14.54" height="14.6"/><rect x="309.68" y="452.34" width="14.54" height="14.6"/><rect x="173.53" y="476.58" width="14.54" height="14.6"/><rect x="207.56" y="457.7" width="14.54" height="14.54"/><rect x="275.63" y="457.7" width="14.54" height="14.54"/><path d="M262.43,417.61l-13.6-13.15-13.28,13.12H103.23s-12.89-12.66-12.89-12.66l-.12-39.49,13.11-13.03h291.08s13,12.73,13,12.73l.12,39.4-12.67,13.01-132.43.07ZM241.84,390.8l-.48-23.84-134.55.16c-3.17,11.87-3.06,23.88-.11,35.73l122.58.18,12.56-12.23ZM391.22,402.79c2.67-12.53,2.96-24.02-.3-35.67l-134.73-.15v24.37s11.8,11.62,11.8,11.62l123.24-.18Z"/><rect x="277.72" y="373.8" width="49.14" height="14.6"/><rect x="336.55" y="373.8" width="14.54" height="14.6"/><rect x="360.79" y="373.8" width="14.54" height="14.6"/></svg>